<?xml version="1.0" encoding="UTF-8" standalone="no"?>
<!-- Created with Inkscape (http://www.inkscape.org/) -->

<svg
   version="1.1"
   id="svg1136"
   width="880"
   height="880"
   viewBox="0 0 880 880"
   sodipodi:docname="castle-in-nature-publicdomainvectors.org.svg"
   inkscape:version="1.2 (dc2aedaf03, 2022-05-15)"
   xmlns:inkscape="http://www.inkscape.org/namespaces/inkscape"
   xmlns:sodipodi="http://sodipodi.sourceforge.net/DTD/sodipodi-0.dtd"
   xmlns="http://www.w3.org/2000/svg"
   xmlns:svg="http://www.w3.org/2000/svg">
  <defs
     id="defs1140">
    <clipPath
       clipPathUnits="userSpaceOnUse"
       id="clipPath1154">
      <path
         d="M 0,660 H 660 V 0 H 0 Z"
         id="path1152" />
    </clipPath>
  </defs>
  <sodipodi:namedview
     id="namedview1138"
     pagecolor="#ffffff"
     bordercolor="#000000"
     borderopacity="0.25"
     inkscape:showpageshadow="2"
     inkscape:pageopacity="0.0"
     inkscape:pagecheckerboard="0"
     inkscape:deskcolor="#d1d1d1"
     showgrid="false"
     inkscape:zoom="0.95113636"
     inkscape:cx="441.05137"
     inkscape:cy="440.52569"
     inkscape:window-width="1920"
     inkscape:window-height="1017"
     inkscape:window-x="-8"
     inkscape:window-y="-8"
     inkscape:window-maximized="1"
     inkscape:current-layer="g1144">
    <inkscape:page
       x="0"
       y="0"
       id="page1142"
       width="880"
       height="880" />
  </sodipodi:namedview>
  <g
     id="g1144"
     inkscape:groupmode="layer"
     inkscape:label="Page 1"
     transform="matrix(1.3333333,0,0,-1.3333333,0,880)">
    <path
       d="M 0.169,0 H 660 V 659.086 H 0.169 Z"
       style="fill:#b8dcff;fill-opacity:1;fill-rule:nonzero;stroke:none"
       id="path1146" />
    <g
       id="g1148">
      <g
         id="g1150"
         clip-path="url(#clipPath1154)">
        <g
           id="g1156"
           transform="translate(660.627,568.1553)">
          <path
             d="m 0,0 v -41.046 c -34.064,-5.538 -62.859,-14.15 -59.808,-27.493 2.788,-12.185 3.427,-16.258 -7.94,-26.393 -23.345,-20.814 -72.569,-55.35 -101.218,-66.251 -56.516,-21.504 -107.801,-21.914 -166.424,-9.604 -71.227,14.956 5.709,12.623 26.062,13.808 38.402,2.236 74.954,9.473 102.76,38.899 21.985,23.269 12.072,37.179 -19.252,25.839 -68.341,-24.739 -93.549,12.255 -154.807,20.788 -36.481,5.083 -1.152,-31.139 -52.246,-32.307 -43.888,-1.004 -72.7,26.078 -129.792,17.851 -28.701,-4.136 -20.509,12.307 0.611,23.998 14.809,8.197 44.625,13.906 16.184,30.868 -26.045,15.53 -84.008,25.07 -114.588,26.475 v 25.577 c 63.837,5.339 158.685,-0.018 218.582,-10.943 47.196,-8.859 79.103,-21.584 123.432,-35.148 58.309,-17.842 55.104,-1.34 108.454,14.954 l 4.525,1.383 C -147.151,8.274 -70.685,8.321 0,0"
             style="fill:#c9e4ff;fill-opacity:1;fill-rule:evenodd;stroke:none"
             id="path1158" />
        </g>
        <g
           id="g1160"
           transform="translate(503.9131,617.6206)">
          <path
             d="m 0,0 c -0.065,-0.24 -0.132,-0.479 -0.201,-0.717 0.266,0.048 0.534,0.093 0.804,0.135 C 0.399,-0.39 0.2,-0.195 0,0 M -503.744,41.465 H 73.74 c 0.753,-3.227 1.153,-6.592 1.153,-10.048 0,-23.824 -18.916,-43.225 -42.548,-44.011 4.904,-5.925 7.852,-13.53 7.852,-21.824 0,-18.917 -15.335,-34.251 -34.252,-34.251 -18.807,0 -34.072,15.159 -34.246,33.925 -7.527,-3.834 -16.046,-5.996 -25.07,-5.996 -10.9,0 -21.06,3.155 -29.625,8.595 -11.249,-11.614 -27.007,-18.836 -44.452,-18.836 -29.879,0 -54.812,21.175 -60.61,49.338 -5.405,-1.922 -11.223,-2.972 -17.287,-2.972 -13.795,0 -26.326,5.414 -35.585,14.233 -5.577,-3.386 -12.125,-5.336 -19.128,-5.336 -10.069,0 -19.197,4.033 -25.858,10.569 0.91,-3.97 1.392,-8.103 1.392,-12.348 0,-30.463 -24.695,-55.158 -55.158,-55.158 -30.462,0 -55.158,24.695 -55.158,55.158 0,3.183 0.274,6.301 0.791,9.337 -4.925,-2.822 -10.474,-4.679 -16.39,-5.311 -2.237,-18.691 -18.143,-33.181 -37.436,-33.181 -13.261,0 -24.92,6.846 -31.643,17.194 -4.423,-1.474 -9.155,-2.273 -14.072,-2.273 -3.494,0 -6.893,0.403 -10.154,1.165 z"
             style="fill:#94ab13;fill-opacity:1;fill-rule:evenodd;stroke:none"
             id="path1162" />
        </g>
        <g
           id="g1164"
           transform="translate(660.627,303.6328)">
          <path
             d="m 0,0 v -47.453 c -3.906,-7.047 -11.42,-11.818 -20.049,-11.818 -3.387,0 -6.602,0.735 -9.495,2.054 -1.173,-9.064 -8.921,-16.068 -18.306,-16.068 -3.746,0 -7.23,1.118 -10.138,3.033 -1.512,-5.322 -5.069,-9.785 -9.767,-12.484 0.361,-1.834 0.554,-3.732 0.554,-5.672 0,-16.09 -13.045,-29.135 -29.136,-29.135 -12.886,0 -23.816,8.366 -27.661,19.964 -3.146,0.555 -5.986,1.993 -8.255,4.053 -3.209,-7.579 -10.715,-12.896 -19.464,-12.896 -2.417,0 -4.739,0.406 -6.901,1.154 0.003,-0.163 0.006,-0.325 0.006,-0.487 0,-11.669 -9.46,-21.129 -21.129,-21.129 -9.275,0 -17.155,5.978 -19.997,14.289 -0.522,-0.035 -1.047,-0.055 -1.577,-0.055 -4.289,0 -8.304,1.17 -11.749,3.203 -4.079,-4.944 -10.253,-8.096 -17.165,-8.096 -4.859,0 -9.353,1.56 -13.012,4.204 -3.55,-4.202 -8.858,-6.873 -14.789,-6.873 -10.046,0 -18.302,7.657 -19.257,17.451 -3.835,-2.591 -8.459,-4.106 -13.437,-4.106 -4.064,0 -7.894,1.011 -11.25,2.795 -4.256,-5.742 -11.081,-9.467 -18.775,-9.467 -9.444,0 -17.576,5.605 -21.257,13.669 -3.437,-2.178 -7.512,-3.438 -11.882,-3.438 -1.561,0 -3.084,0.162 -4.555,0.466 -2.72,-8.525 -10.704,-14.701 -20.133,-14.701 -9.43,0 -17.415,6.176 -20.134,14.704 -2.684,-1.433 -5.748,-2.248 -9.003,-2.248 -5.178,0 -9.874,2.058 -13.318,5.4 -2.764,-5.573 -8.509,-9.404 -15.149,-9.404 -5.613,0 -10.585,2.737 -13.659,6.945 -2.432,-1.035 -5.107,-1.606 -7.916,-1.606 -5.739,0 -10.918,2.388 -14.601,6.225 0.386,-1.989 0.589,-4.043 0.589,-6.143 0,-17.683 -14.335,-32.019 -32.019,-32.019 -17.682,0 -32.018,14.336 -32.018,32.019 0,7.866 2.839,15.067 7.545,20.64 -0.396,0.137 -0.786,0.287 -1.17,0.444 -2.307,-8.226 -9.861,-14.261 -18.826,-14.261 -6.377,0 -12.041,3.054 -15.61,7.779 -3.478,-4.254 -8.531,-7.17 -14.271,-7.856 -2.018,-4.325 -6.051,-7.519 -10.891,-8.379 -3.36,-11.064 -13.64,-19.118 -25.802,-19.118 -14.891,0 -26.963,12.072 -26.963,26.963 0,1.819 0.181,3.597 0.525,5.315 -2.112,-0.609 -4.342,-0.933 -6.65,-0.933 -4.597,0 -8.891,1.292 -12.541,3.53 v 40.978 c 3.65,2.239 7.944,3.532 12.541,3.532 13.267,0 24.02,-10.754 24.02,-24.021 0,-1.04 -0.066,-2.065 -0.194,-3.07 2.888,1.056 6.008,1.634 9.262,1.634 4.455,0 8.656,-1.082 12.358,-2.994 0.913,11.197 10.289,19.999 21.722,19.999 7.776,0 14.6,-4.072 18.457,-10.201 3.554,3.665 8.529,5.944 14.037,5.944 2.167,0 4.251,-0.354 6.199,-1.005 1.988,9.606 10.496,16.828 20.691,16.828 9.811,0 18.058,-6.686 20.437,-15.751 3.366,2.088 7.337,3.296 11.591,3.296 8.79,0 16.377,-5.152 19.906,-12.602 3.299,2.333 7.327,3.706 11.676,3.706 8.349,0 15.515,-5.055 18.609,-12.271 0.961,0.171 1.952,0.261 2.966,0.261 4.027,0 7.726,-1.41 10.629,-3.762 2.772,7.146 9.712,12.212 17.838,12.212 7.977,0 14.813,-4.883 17.683,-11.824 3.3,2.135 7.231,3.374 11.454,3.374 1.068,0 2.118,-0.081 3.145,-0.235 2.464,9.599 11.175,16.693 21.543,16.693 8.656,0 16.158,-4.946 19.833,-12.168 3.775,2.623 8.361,4.16 13.306,4.16 3.681,0 7.16,-0.852 10.256,-2.369 4.335,6.268 11.572,10.377 19.769,10.377 13.267,0 24.021,-10.756 24.021,-24.021 0,-0.242 -0.005,-0.482 -0.012,-0.721 2.61,1.314 5.562,2.054 8.685,2.054 3.19,0 6.201,-0.771 8.853,-2.139 3.915,6.354 10.937,10.592 18.948,10.592 3.761,0 7.301,-0.934 10.408,-2.583 4.218,5.619 10.937,9.254 18.506,9.254 5.274,0 10.133,-1.764 14.024,-4.736 2.025,6.853 8.368,11.854 15.879,11.854 5.153,0 9.756,-2.355 12.793,-6.047 2.163,0.747 4.485,1.154 6.902,1.154 6.752,0 12.764,-3.167 16.632,-8.098 2.953,4.604 8.117,7.654 13.991,7.654 2.236,0 4.367,-0.444 6.316,-1.244 4.476,3.666 10.067,6.025 16.185,6.494 2.293,9.122 10.55,15.877 20.383,15.877 4.981,0 9.559,-1.733 13.159,-4.629 2.687,6.876 9.375,11.747 17.201,11.747 1.699,0 3.342,-0.232 4.903,-0.66 -0.006,0.219 -0.01,0.439 -0.01,0.66 0,12.651 10.256,22.908 22.908,22.908 3.947,0 7.662,-0.999 10.904,-2.756 C -9.024,-9.382 -5.403,-3.406 0,0"
             style="fill:#b8c2a5;fill-opacity:1;fill-rule:evenodd;stroke:none"
             id="path1166" />
        </g>
        <path
           d="M 248.612,265.314 H 280.07 V 334.63 H 248.612 Z"
           style="fill:#7a6743;fill-opacity:1;fill-rule:evenodd;stroke:none"
           id="path1168" />
        <path
           d="m 248.612,329.094 h 31.458 v 5.536 h -31.458 z"
           style="fill:#695838;fill-opacity:1;fill-rule:evenodd;stroke:none"
           id="path1170" />
        <g
           id="g1172"
           transform="translate(264.3418,362.6758)">
          <path
             d="M 0,0 11.983,-15.592 23.968,-31.183 H 0 -23.97 l 11.985,15.591 z"
             style="fill:#ff4000;fill-opacity:1;fill-rule:evenodd;stroke:none"
             id="path1174" />
        </g>
        <g
           id="g1176"
           transform="translate(264.3403,319.1299)">
          <path
             d="M 0,0 H 0.001 C 4.027,0 7.319,-3.293 7.319,-7.319 V -25.586 H -7.318 V -7.319 C -7.318,-3.293 -4.025,0 0,0"
             style="fill:#543a09;fill-opacity:1;fill-rule:evenodd;stroke:none"
             id="path1178" />
        </g>
        <path
           d="m 380.726,265.314 h 31.457 v 69.316 h -31.457 z"
           style="fill:#7a6743;fill-opacity:1;fill-rule:evenodd;stroke:none"
           id="path1180" />
        <path
           d="m 380.726,329.094 h 31.457 v 5.536 h -31.457 z"
           style="fill:#695838;fill-opacity:1;fill-rule:evenodd;stroke:none"
           id="path1182" />
        <g
           id="g1184"
           transform="translate(396.4551,362.6758)">
          <path
             d="M 0,0 11.984,-15.592 23.969,-31.183 H 0 -23.971 l 11.986,15.591 z"
             style="fill:#ff4000;fill-opacity:1;fill-rule:evenodd;stroke:none"
             id="path1186" />
        </g>
        <g
           id="g1188"
           transform="translate(396.4531,319.1299)">
          <path
             d="M 0,0 H 0.002 C 4.027,0 7.319,-3.293 7.319,-7.319 V -25.586 H -7.318 V -7.319 C -7.318,-3.293 -4.025,0 0,0"
             style="fill:#543a09;fill-opacity:1;fill-rule:evenodd;stroke:none"
             id="path1190" />
        </g>
        <path
           d="m 292.243,243.695 h 76.309 v 132.927 h -76.309 z"
           style="fill:#7a6743;fill-opacity:1;fill-rule:evenodd;stroke:none"
           id="path1192" />
        <path
           d="m 292.243,366.007 h 76.309 v 10.615 h -76.309 z"
           style="fill:#695838;fill-opacity:1;fill-rule:evenodd;stroke:none"
           id="path1194" />
        <g
           id="g1196"
           transform="translate(330.3989,430.4072)">
          <path
             d="M 0,0 29.072,-29.9 58.144,-59.801 H 0 -58.146 l 29.073,29.901 z"
             style="fill:#ff4000;fill-opacity:1;fill-rule:evenodd;stroke:none"
             id="path1198" />
        </g>
        <g
           id="g1200"
           transform="translate(330.3975,346.8984)">
          <path
             d="m 0,0 h 0.001 c 9.765,0 17.754,-7.989 17.754,-17.754 v -31.313 h -35.509 v 31.313 C -17.754,-7.989 -9.765,0 0,0"
             style="fill:#543a09;fill-opacity:1;fill-rule:evenodd;stroke:none"
             id="path1202" />
        </g>
        <path
           d="M 230.343,186.09 H 430.452 V 289.844 H 230.343 Z"
           style="fill:#695838;fill-opacity:1;fill-rule:evenodd;stroke:none"
           id="path1204" />
        <path
           d="M 184.384,186.09 H 241.26 V 311.417 H 184.384 Z"
           style="fill:#7a6743;fill-opacity:1;fill-rule:evenodd;stroke:none"
           id="path1206" />
        <path
           d="m 184.384,301.408 h 56.876 v 10.009 h -56.876 z"
           style="fill:#695838;fill-opacity:1;fill-rule:evenodd;stroke:none"
           id="path1208" />
        <g
           id="g1210"
           transform="translate(212.8237,362.1255)">
          <path
             d="M 0,0 21.669,-28.19 43.337,-56.381 H 0 -43.338 l 21.669,28.191 z"
             style="fill:#ff4000;fill-opacity:1;fill-rule:evenodd;stroke:none"
             id="path1212" />
        </g>
        <g
           id="g1214"
           transform="translate(212.8223,283.3926)">
          <path
             d="M 0,0 H 0.001 C 7.28,0 13.234,-5.955 13.234,-13.233 v -33.03 h -26.466 v 33.03 C -13.232,-5.955 -7.278,0 0,0"
             style="fill:#543a09;fill-opacity:1;fill-rule:evenodd;stroke:none"
             id="path1216" />
        </g>
        <path
           d="m 419.534,186.09 h 56.877 v 125.327 h -56.877 z"
           style="fill:#7a6743;fill-opacity:1;fill-rule:evenodd;stroke:none"
           id="path1218" />
        <path
           d="m 419.534,301.408 h 56.877 v 10.009 h -56.877 z"
           style="fill:#695838;fill-opacity:1;fill-rule:evenodd;stroke:none"
           id="path1220" />
        <g
           id="g1222"
           transform="translate(447.9727,362.1255)">
          <path
             d="m 0,0 21.669,-28.19 21.67,-28.191 H 0 -43.338 l 21.669,28.191 z"
             style="fill:#ff4000;fill-opacity:1;fill-rule:evenodd;stroke:none"
             id="path1224" />
        </g>
        <g
           id="g1226"
           transform="translate(447.9727,283.3926)">
          <path
             d="m 0,0 v 0 c 7.279,0 13.233,-5.955 13.233,-13.233 v -33.03 h -26.466 v 33.03 C -13.233,-5.955 -7.279,0 0,0"
             style="fill:#543a09;fill-opacity:1;fill-rule:evenodd;stroke:none"
             id="path1228" />
        </g>
        <g
           id="g1230"
           transform="translate(330.3975,254.4795)">
          <path
             d="M 0,0 V 0 C 16.733,0 30.422,-13.688 30.422,-30.422 V -68.39 h -60.844 v 37.968 C -30.422,-13.688 -16.733,0 0,0"
             style="fill:#543a09;fill-opacity:1;fill-rule:evenodd;stroke:none"
             id="path1232" />
        </g>
        <g
           id="g1234"
           transform="translate(660.627,272.6914)">
          <path
             d="m 0,0 v -106.48 c -2.589,-0.383 -5.237,-0.583 -7.932,-0.583 -2.754,0 -5.459,0.207 -8.102,0.607 -3.686,-1.767 -7.814,-2.756 -12.174,-2.756 -8.704,0 -16.484,3.941 -21.659,10.138 -6.08,-5.517 -14.151,-8.879 -23.008,-8.879 -8.07,0 -15.488,2.793 -21.341,7.463 -3.375,-2.456 -7.529,-3.905 -12.021,-3.905 -6.968,0 -13.121,3.483 -16.816,8.803 -5.466,-6.472 -13.639,-10.582 -22.773,-10.582 -10.578,0 -19.868,5.511 -25.158,13.819 -2.897,-6.566 -9.462,-11.15 -17.101,-11.15 -4.962,0 -9.473,1.936 -12.818,5.092 -4.465,-4.776 -10.82,-7.761 -17.874,-7.761 -5.93,0 -11.366,2.11 -15.601,5.619 0.02,-0.462 0.031,-0.926 0.031,-1.392 0,-18.058 -14.637,-32.695 -32.694,-32.695 -11.232,0 -21.141,5.665 -27.026,14.292 -4.363,-1.757 -9.128,-2.726 -14.12,-2.726 -17.509,0 -32.235,11.901 -36.537,28.054 -1.284,0.052 -2.535,0.231 -3.743,0.526 -4.405,-7.014 -12.211,-11.678 -21.106,-11.678 -8.339,0 -15.719,4.1 -20.242,10.391 -4.025,-10.747 -14.388,-18.397 -26.54,-18.397 -10.837,0 -20.251,6.084 -25.017,15.023 -3.137,-1.641 -6.707,-2.569 -10.493,-2.569 -7.81,0 -14.699,3.948 -18.779,9.956 -2.369,-0.689 -4.874,-1.059 -7.465,-1.059 -2.147,0 -4.236,0.255 -6.237,0.734 0.006,-0.244 0.01,-0.49 0.01,-0.734 0,-19.163 -15.535,-34.697 -34.697,-34.697 -13.002,0 -24.333,7.155 -30.275,17.739 -2.573,-0.546 -5.242,-0.835 -7.979,-0.835 -13.607,0 -25.553,7.105 -32.335,17.806 -2.159,-15.589 -15.537,-27.593 -31.719,-27.593 -15.26,0 -28.025,10.673 -31.244,24.959 -0.553,-0.031 -1.112,-0.048 -1.673,-0.048 -2.128,0 -4.201,0.227 -6.2,0.657 v 57.401 c 1.999,0.431 4.072,0.658 6.2,0.658 12.932,0 23.912,-8.364 27.826,-19.977 1.658,0.266 3.358,0.404 5.091,0.404 10.647,0 20.08,-5.196 25.903,-13.191 1.444,19.809 17.972,35.433 38.151,35.433 16.136,0 29.937,-9.992 35.558,-24.123 0.891,0.067 1.789,0.103 2.696,0.103 5.239,0 10.206,-1.164 14.659,-3.243 2.247,12.467 13.151,21.926 26.265,21.926 11.302,0 20.963,-7.027 24.855,-16.948 0.459,0.029 0.923,0.043 1.389,0.043 6.872,0 13.029,-3.054 17.189,-7.879 4.941,4.192 11.335,6.721 18.321,6.721 10.183,0 19.108,-5.372 24.104,-13.434 3.921,8.608 12.6,14.592 22.678,14.592 5.371,0 10.343,-1.698 14.41,-4.588 3.133,2.308 7.002,3.673 11.191,3.673 3.007,0 5.851,-0.705 8.375,-1.956 6.888,7.248 16.619,11.768 27.41,11.768 15.415,0 28.676,-9.227 34.562,-22.458 2.126,0.435 4.328,0.663 6.584,0.663 9.428,0 17.922,-3.992 23.888,-10.376 1.055,12.538 11.565,22.386 24.376,22.386 8.828,0 16.564,-4.678 20.866,-11.689 2.854,1.77 6.22,2.792 9.826,2.792 4.997,0 9.535,-1.961 12.888,-5.156 2.409,14.041 14.641,24.727 29.371,24.727 13.144,0 24.301,-8.511 28.262,-20.323 3.245,2.161 7.138,3.42 11.327,3.42 0.221,0 0.442,-0.004 0.662,-0.01 4.346,13.924 17.342,24.032 32.7,24.032 4.356,0 8.521,-0.815 12.353,-2.297 5.267,24.202 26.809,42.33 52.59,42.33 C -5.237,0.583 -2.589,0.382 0,0"
             style="fill:#9ec05f;fill-opacity:1;fill-rule:evenodd;stroke:none"
             id="path1236" />
        </g>
        <path
           d="M 0.169,-1.373 H 660.627 V 186.09 H 0.169 Z"
           style="fill:#abd066;fill-opacity:1;fill-rule:evenodd;stroke:none"
           id="path1238" />
        <g
           id="g1240"
           transform="translate(14.7544,163.7197)">
          <path
             d="M 0,0 645.873,-16.888 V -82.722 L -1.761,-24.895 Z"
             style="fill:#c6de7e;fill-opacity:1;fill-rule:evenodd;stroke:none"
             id="path1242" />
        </g>
        <g
           id="g1244"
           transform="translate(59.6973,659.0859)">
          <path
             d="M 0,0 H 51.086 C 50.593,-0.886 50.134,-1.718 49.728,-2.479 36.768,-26.708 30.43,-43.665 20.142,-68.742 10.091,-93.237 4.461,-113.789 -2.716,-139.055 c -2.155,-7.643 -4.39,-15.45 -5.51,-23.322 -4.457,-31.322 16.638,-51.486 45.011,-31.204 7.906,5.774 14.785,11.431 21.858,18.216 l 5.224,5.154 c 5.355,5.275 9.711,9.807 14.269,15.832 13.333,18.394 20.527,40.641 35.332,56.719 12.021,12.263 29.463,19.475 28.379,37.764 -2.023,14.101 -0.18,15.65 4.942,28.596 1.236,3.121 6.686,17.844 12.2,31.3 h 9.826 c -1.992,-9.243 -4.584,-18.534 -6.102,-23.813 -17.286,-60.179 25.916,-29.25 49.071,-9.735 15.012,12.651 24.648,22.945 31.881,33.548 h 19.076 C 249.66,-23.827 232.134,-40.218 200.665,-69.1 l -4.781,-4.336 c -4.928,-4.3 -10.017,-8.385 -14.888,-12.749 l -4.48,-3.831 c -20.061,-17.158 -13.33,-28.448 10.736,-30.207 24.217,-1.532 47.206,1.998 70.412,8.897 78.939,23.469 98.175,45.924 149.341,106.682 1.262,1.498 2.536,3.051 3.815,4.644 h 16.635 c -0.597,-0.797 -1.185,-1.575 -1.767,-2.328 -18.809,-24.425 -38.074,-49.869 -59.852,-71.643 -14.315,-13.689 -29.137,-24.201 -46.227,-34.145 -34.678,-20.177 -58.569,-28.947 -98.217,-34.522 -32.971,-4.635 -65.803,8.186 -93.071,-15.901 -13.557,-13.014 -19.854,-26.576 -36.594,-40.856 -14.247,-11.604 -25.788,-26.357 -37.427,-40.497 -14.4,-17.427 -16.641,-29.64 -27.995,-46.606 -19.223,-28.725 -27.71,-48.848 -36.529,-82.285 -10.576,-41.164 -5.545,-129.328 2.612,-173.412 3.524,-19.047 5.557,-40.358 17.584,-55.596 19.444,-24.633 13.808,1.222 27.007,-22.707 12.58,-22.808 3.822,-25.729 -12.623,-34.384 -4.139,-2.178 -8.231,-3.991 -12.283,-5.577 h -71.601 v 485.068 c 1.612,1.8 2.655,3.237 4.043,5.681 6.354,12.226 10.576,33.228 13.231,46.817 2.518,12.674 4.727,22.708 9.992,34.573 12.461,28.084 21.573,39.641 29.326,72.03 C -1.417,-9.944 -0.106,-4.725 0,0"
             style="fill:#825222;fill-opacity:1;fill-rule:evenodd;stroke:none"
             id="path1246" />
        </g>
        <g
           id="g1248"
           transform="translate(59.6973,659.0859)">
          <path
             d="m 0,0 h 21.28 c -10.625,-30.796 -25.051,-59.718 -38.667,-90.155 -9.542,-21.328 -17.025,-61.768 -12.745,-84.882 7.633,-34.729 11.771,-48.568 3.827,-85.081 -0.593,-2.565 -1.188,-5.128 -1.761,-7.697 -10.065,-45.152 3.578,-82.591 -17.376,-126.489 -4.116,-8.621 -8.848,-16.08 -14.086,-22.724 v 241.637 c 1.612,1.8 2.655,3.237 4.043,5.681 6.354,12.226 10.576,33.228 13.231,46.817 2.518,12.674 4.727,22.708 9.992,34.573 12.461,28.084 21.573,39.641 29.326,72.03 C -1.417,-9.944 -0.106,-4.725 0,0"
             style="fill:#996531;fill-opacity:1;fill-rule:evenodd;stroke:none"
             id="path1250" />
        </g>
        <g
           id="g1252"
           transform="translate(91.0288,659.0859)">
          <path
             d="m 0,0 c -3.115,-18.012 -9.173,-33.191 -19.148,-58.5 -6.958,-17.685 -14.001,-34.949 -21.146,-52.536 -4.12,-13.348 -18.588,-68.977 -11.212,-79.777 5.088,-7.449 15.252,-9.933 26.319,-9.046 -10.98,4.985 -16.949,19.367 -14.371,37.482 1.12,7.872 3.355,15.679 5.51,23.322 7.178,25.266 12.807,45.818 22.858,70.313 10.289,25.077 16.626,42.034 29.586,66.263 0.407,0.761 0.865,1.593 1.359,2.479 z m 226.372,0 h 5.037 c -13.081,-23.827 -30.606,-40.218 -62.075,-69.1 l -4.782,-4.336 c -4.927,-4.3 -10.017,-8.385 -14.888,-12.749 l -4.48,-3.831 c -20.061,-17.158 -13.33,-28.448 10.737,-30.207 24.216,-1.532 47.206,1.998 70.411,8.897 78.939,23.469 98.175,45.924 149.341,106.682 1.263,1.498 2.536,3.051 3.816,4.644 h 16.634 c -0.596,-0.797 -1.185,-1.575 -1.766,-2.328 -18.81,-24.425 -38.074,-49.869 -59.853,-71.643 -14.314,-13.689 -29.136,-24.201 -46.226,-34.145 -12.36,-7.191 -23.347,-12.932 -34.167,-17.597 -5.711,-3.239 -14.784,-6.352 -21.761,-8.001 -12.683,-3.869 -26.186,-6.66 -42.29,-8.924 -10.906,-1.534 -21.798,-1.157 -32.477,-0.838 -11.153,-0.477 -22.753,0.696 -34.575,-1.858 -9.079,-2.043 -17.801,-5.948 -26.019,-13.205 -13.556,-13.014 -19.853,-26.576 -36.594,-40.856 -14.247,-11.604 -25.787,-26.357 -37.426,-40.497 -14.401,-17.427 -16.642,-29.64 -27.996,-46.606 -19.223,-28.725 -27.709,-48.848 -36.528,-82.285 -10.577,-41.164 -5.545,-129.328 2.611,-173.412 3.524,-19.047 5.558,-40.358 17.585,-55.596 19.443,-24.633 13.808,1.222 27.006,-22.707 7.208,-13.068 7.41,-19.607 3.175,-24.438 -6.485,0.685 -12.195,1.58 -20.96,1.141 -37.273,-1.869 -51.56,-0.323 -53.691,41.762 -1.021,20.154 -0.467,32.926 -3.959,53.355 -2.366,13.849 -3.474,24.225 -3.637,38.315 0.504,27.592 2.812,35.942 9.944,61.779 5.898,21.369 6.073,54.76 9.099,78.539 7.096,53.527 22.593,87.192 52.138,131.744 16.301,23.348 22.606,27.215 43.67,44.419 34.648,28.297 28.533,58.389 49.366,77.776 6.182,5.752 12.965,9.324 20.56,12.803 20.875,8.966 21.75,11.095 37.09,27.814 29.704,32.465 55.946,49.415 77.93,75.489"
             style="fill:#663c12;fill-opacity:1;fill-rule:evenodd;stroke:none"
             id="path1254" />
        </g>
        <g
           id="g1256"
           transform="translate(0.1689,75.6621)">
          <path
             d="m 0,0 c 6.265,-8.319 8.994,-18.482 8.438,-30.36 4.57,15.9 11.279,27.397 20.891,32.917 -8.448,-17.204 -5.492,-30.541 3.559,-41.814 -3.977,14.689 -1.363,28.905 7.117,42.703 -3.709,-18.702 -0.442,-33.491 8.007,-45.371 10.14,17.521 15.065,36.45 14.234,56.938 5.948,-13.645 7.693,-26.689 5.338,-39.146 6.696,6.29 10.208,14.174 9.787,24.022 4.139,-8.903 5.942,-18.974 5.337,-30.249 3.21,17.52 10.432,33.191 21.352,47.151 -7.467,-16.017 -9.142,-31.728 -5.338,-47.151 2.575,11.829 6.608,22.579 16.013,29.358 -4.472,-10.973 -4.721,-21.943 0,-32.916 -2.621,15.705 2.029,29.666 14.235,41.813 -6.012,-17.326 -5.259,-32.494 2.669,-45.373 -1.798,16.198 1.201,30.661 13.344,41.815 -5.87,-15.01 -4.213,-27.101 4.448,-36.476 -5.437,18.998 -2.74,37.305 5.338,55.158 -4.4,-25.196 0.249,-45.383 12.455,-61.385 7.135,6.535 10.361,16.299 10.676,28.468 5.008,-10.222 7.743,-20.323 7.117,-30.248 18.801,11.067 24.252,31.892 27.578,54.268 10.394,-20.718 14.524,-41.853 16.015,-63.164 0.469,18.412 7.243,32.002 17.793,42.702 -1.35,-22.856 1.904,-28.565 15.123,-34.696 -1.33,11.092 3.11,20.642 10.677,29.359 -4.561,-13.392 -0.777,-22.787 8.897,-29.359 -2.676,17.055 3.266,31.284 17.793,42.704 -3.777,-18.93 0.217,-32.967 12.454,-41.814 -1.773,17.05 2.069,32.474 11.565,46.262 -6.7,-23.486 -0.146,-40.581 9.787,-56.049 11.007,14.068 18.647,30.415 20.461,50.71 6.224,-13.789 10.085,-27.726 11.566,-41.813 7.607,14.908 10.184,33.727 7.117,56.937 8.855,-17.508 12.793,-36.463 11.566,-56.937 7.407,8.843 10.679,20.221 8.895,34.696 12.07,-12.1 16.101,-26.45 13.344,-42.702 13.845,23.958 21.447,51.661 20.463,84.516 5.002,-25.36 6.86,-49.371 3.558,-71.171 9.519,3.824 15.391,11.299 16.014,24.02 16.144,-12.862 19.766,-27.169 20.463,-41.813 8.926,17.766 13.609,39.171 14.233,64.054 5.615,-15.456 9.51,-31.102 9.787,-47.152 8.716,9.947 13.524,24.453 15.123,42.704 8.357,-19.007 11.81,-37.635 12.456,-56.049 5.318,13.102 8.325,27.525 5.337,45.373 11.575,-12.105 15.411,-25.557 13.345,-40.034 9.805,14.881 12.735,35.827 12.455,59.607 9.417,-17.899 15.792,-36.666 16.904,-56.938 0.029,19.442 5.604,35.419 15.123,48.93 -0.302,-14.386 1.489,-27.725 7.116,-39.144 7.4,10.686 12.472,22.824 15.125,36.476 11.364,-15.671 15.923,-34.742 17.792,-55.158 7.581,15.655 10.51,33.868 6.229,56.047 8.076,-13.033 12.089,-27.002 12.455,-41.814 12.01,16.024 17.145,40.89 20.832,67.613 V -77.035 H 0 Z"
             style="fill:#5f992c;fill-opacity:1;fill-rule:evenodd;stroke:none"
             id="path1258" />
        </g>
        <g
           id="g1260"
           transform="translate(660.627,75.6621)">
          <path
             d="m 0,0 c -6.265,-8.319 -8.993,-18.482 -8.437,-30.36 -4.571,15.9 -11.28,27.397 -20.891,32.917 8.447,-17.204 5.49,-30.541 -3.56,-41.814 3.978,14.689 1.363,28.905 -7.117,42.703 3.709,-18.702 0.442,-33.491 -8.007,-45.371 -10.14,17.521 -15.065,36.45 -14.234,56.938 -5.948,-13.645 -7.693,-26.689 -5.338,-39.146 -6.696,6.29 -10.207,14.174 -9.786,24.022 -4.14,-8.903 -5.943,-18.974 -5.337,-30.249 -3.21,17.52 -10.433,33.191 -21.353,47.151 7.466,-16.017 9.142,-31.728 5.339,-47.151 -2.576,11.829 -6.608,22.579 -16.014,29.358 4.472,-10.973 4.721,-21.943 0,-32.916 2.621,15.705 -2.029,29.666 -14.234,41.813 6.011,-17.326 5.258,-32.494 -2.669,-45.373 1.797,16.198 -1.202,30.661 -13.345,41.815 5.87,-15.01 4.214,-27.101 -4.448,-36.476 5.438,18.998 2.739,37.305 -5.339,55.158 4.401,-25.196 -0.247,-45.383 -12.454,-61.385 -7.135,6.535 -10.361,16.299 -10.676,28.468 -5.008,-10.222 -7.744,-20.323 -7.117,-30.248 -18.801,11.067 -24.252,31.892 -27.58,54.268 -10.39,-20.718 -14.521,-41.853 -16.012,-63.164 -0.468,18.412 -7.244,32.002 -17.793,42.702 1.349,-22.856 -1.905,-28.565 -15.124,-34.696 1.33,11.092 -3.11,20.642 -10.675,29.359 4.559,-13.392 0.776,-22.787 -8.899,-29.359 2.677,17.055 -3.267,31.284 -17.791,42.704 3.777,-18.93 -0.218,-32.967 -12.456,-41.814 1.773,17.05 -2.07,32.474 -11.566,46.262 6.701,-23.486 0.148,-40.581 -9.785,-56.049 -11.008,14.068 -18.648,30.415 -20.462,50.71 -6.225,-13.789 -10.085,-27.726 -11.565,-41.813 -7.608,14.908 -10.185,33.727 -7.118,56.937 -8.855,-17.508 -12.792,-36.463 -11.564,-56.937 -7.411,8.843 -10.68,20.221 -8.896,34.696 -12.071,-12.1 -16.102,-26.45 -13.345,-42.702 -13.843,23.958 -21.448,51.661 -20.463,84.516 -5.001,-25.36 -6.859,-49.371 -3.559,-71.171 -9.52,3.824 -15.39,11.299 -16.012,24.02 -16.145,-12.862 -19.767,-27.169 -20.463,-41.813 -8.927,17.766 -13.61,39.171 -14.234,64.054 -5.615,-15.456 -9.51,-31.102 -9.786,-47.152 -8.716,9.947 -13.525,24.453 -15.124,42.704 -8.358,-19.007 -11.809,-37.635 -12.455,-56.049 -5.318,13.102 -8.327,27.525 -5.338,45.373 -11.575,-12.105 -15.41,-25.557 -13.345,-40.034 -9.804,14.881 -12.735,35.827 -12.455,59.607 -9.415,-17.899 -15.791,-36.666 -16.904,-56.938 -0.029,19.442 -5.603,35.419 -15.123,48.93 0.302,-14.386 -1.489,-27.725 -7.117,-39.144 -7.398,10.686 -12.471,22.824 -15.124,36.476 -11.364,-15.671 -15.923,-34.742 -17.793,-55.158 -7.58,15.655 -10.509,33.868 -6.228,56.047 -8.077,-13.033 -12.088,-27.002 -12.455,-41.814 -12.009,16.024 -17.144,40.89 -20.832,67.613 V -77.035 H 0 Z"
             style="fill:#4e851f;fill-opacity:1;fill-rule:evenodd;stroke:none"
             id="path1262" />
        </g>
        <g
           id="g1264"
           transform="translate(0.1689,659.0859)">
          <path
             d="m 0,0 h 598.176 c 0.02,-0.53 0.033,-1.062 0.033,-1.597 0,-23.093 -18.719,-41.814 -41.811,-41.814 -18.996,0 -35.031,12.668 -40.123,30.014 -7.264,-17.614 -24.603,-30.014 -44.84,-30.014 -9.713,0 -18.757,2.859 -26.342,7.777 -9.429,-13.354 -24.982,-22.078 -42.572,-22.078 -19.906,0 -37.201,11.17 -45.963,27.582 -6.444,-3.04 -13.642,-4.744 -21.24,-4.744 -14.211,0 -27.034,5.951 -36.11,15.498 -6.275,-6.732 -15.218,-10.942 -25.148,-10.942 -2.879,0 -5.675,0.356 -8.348,1.022 -3.897,-15.033 -17.556,-26.136 -33.808,-26.136 -15.615,0 -28.835,10.249 -33.304,24.386 -6.532,-4.693 -14.542,-7.459 -23.2,-7.459 -7.936,0 -15.329,2.322 -21.537,6.325 -5.801,-5.837 -13.837,-9.451 -22.717,-9.451 -7.727,0 -14.815,2.737 -20.348,7.294 -6.451,-14.783 -21.193,-25.118 -38.354,-25.118 -20.178,0 -37.018,14.29 -40.957,33.3 -3.339,-0.975 -6.872,-1.501 -10.527,-1.501 -7.765,0 -14.976,2.36 -20.96,6.401 z"
             style="fill:#82970a;fill-opacity:1;fill-rule:evenodd;stroke:none"
             id="path1266" />
        </g>
      </g>
    </g>
  </g>
</svg>
