<?xml version="1.0" encoding="UTF-8" standalone="no"?>
<!-- Created with Inkscape (http://www.inkscape.org/) -->

<svg
   xmlns:dc="http://purl.org/dc/elements/1.1/"
   xmlns:cc="http://creativecommons.org/ns#"
   xmlns:rdf="http://www.w3.org/1999/02/22-rdf-syntax-ns#"
   xmlns:svg="http://www.w3.org/2000/svg"
   xmlns="http://www.w3.org/2000/svg"
   xmlns:sodipodi="http://sodipodi.sourceforge.net/DTD/sodipodi-0.dtd"
   xmlns:inkscape="http://www.inkscape.org/namespaces/inkscape"
   width="11in"
   height="8.5in"
   viewBox="0 0 279.4 215.9"
   version="1.1"
   id="svg8"
   inkscape:version="0.92.1 r15371"
   sodipodi:docname="airconditioning.svg"
   inkscape:export-filename="C:\Users\jarias\Desktop\APAGAR.png"
   inkscape:export-xdpi="96"
   inkscape:export-ydpi="96">
  <defs
     id="defs2" />
  <sodipodi:namedview
     id="base"
     pagecolor="#ffffff"
     bordercolor="#666666"
     borderopacity="1.0"
     inkscape:pageopacity="0.0"
     inkscape:pageshadow="2"
     inkscape:zoom="0.75623921"
     inkscape:cx="796.18833"
     inkscape:cy="334.08442"
     inkscape:document-units="mm"
     inkscape:current-layer="layer2"
     showgrid="false"
     units="in"
     inkscape:snap-bbox="false"
     inkscape:bbox-paths="false"
     inkscape:bbox-nodes="true"
     inkscape:snap-bbox-edge-midpoints="false"
     inkscape:snap-bbox-midpoints="false"
     inkscape:snap-page="true"
     showguides="true"
     inkscape:snap-global="true"
     inkscape:window-width="1920"
     inkscape:window-height="1027"
     inkscape:window-x="-8"
     inkscape:window-y="-8"
     inkscape:window-maximized="1"
     inkscape:guide-bbox="true" />
  <metadata
     id="metadata5">
    <rdf:RDF>
      <cc:Work
         rdf:about="">
        <dc:format>image/svg+xml</dc:format>
        <dc:type
           rdf:resource="http://purl.org/dc/dcmitype/StillImage" />
        <dc:title></dc:title>
      </cc:Work>
    </rdf:RDF>
  </metadata>
  <g
     inkscape:label="Layer 1"
     inkscape:groupmode="layer"
     id="layer1"
     transform="translate(0,-81.1)"
     style="display:inline" />
  <g
     inkscape:groupmode="layer"
     id="layer2"
     inkscape:label="Layer 2">
    <flowRoot
       xml:space="preserve"
       id="flowRoot5979"
       style="fill:black;fill-opacity:1;stroke:none;font-family:sans-serif;font-style:normal;font-weight:normal;font-size:40px;line-height:1.25;letter-spacing:1px;word-spacing:0px"><flowRegion
         id="flowRegion5981"><rect
           id="rect5983"
           width="1417.0918"
           height="858.10059"
           x="1315.7542"
           y="87.023148" /></flowRegion><flowPara
         id="flowPara5985" /></flowRoot>    <g
       id="g5660"
       transform="matrix(2.8499049,0,0,2.8499049,-543.61484,168.41633)">
      <path
         sodipodi:nodetypes="ccccc"
         inkscape:connector-curvature="0"
         id="rect4497-9"
         d="m 280.76795,-22.298251 h -82.00071 v -19.293191 h 82.0007 z"
         style="opacity:1;fill:#ececec;fill-opacity:1;stroke:none;stroke-width:0.35860699;stroke-linecap:round;stroke-linejoin:round;stroke-miterlimit:4;stroke-dasharray:none;stroke-dashoffset:0;stroke-opacity:0.65490196;paint-order:stroke fill markers" />
      <path
         sodipodi:nodetypes="ccccc"
         inkscape:connector-curvature="0"
         id="rect4497-9-8"
         d="m 198.76724,-41.591442 c 0,-1.990967 2.45429,-4.791866 6.09218,-4.791866 h 69.81635 c 2.91107,0 6.09217,1.990719 6.09217,4.791866 z"
         style="opacity:1;fill:#f9f9f9;fill-opacity:1;stroke:none;stroke-width:0.35860699;stroke-linecap:round;stroke-linejoin:round;stroke-miterlimit:4;stroke-dasharray:none;stroke-dashoffset:0;stroke-opacity:0.65490196;paint-order:stroke fill markers" />
      <path
         sodipodi:nodetypes="ccccc"
         inkscape:connector-curvature="0"
         id="rect4497-9-0"
         d="m 280.76794,-22.298251 c 0,2.97688 -2.05848,6.985051 -5.55239,6.985051 h -70.8959 c -3.68127,0 -5.55241,-4.061707 -5.55241,-6.985051 z"
         style="opacity:1;fill:#b3b3b3;fill-opacity:1;stroke:none;stroke-width:0.35860699;stroke-linecap:round;stroke-linejoin:round;stroke-miterlimit:4;stroke-dasharray:none;stroke-dashoffset:0;stroke-opacity:0.65490196;paint-order:stroke fill markers" />
      <g
         transform="matrix(0.94259636,0,0,1,28.438254,-61.408673)"
         id="g5633">
        <path
           style="opacity:1;fill:#808080;fill-opacity:1;stroke:none;stroke-width:0.24473363;stroke-linecap:round;stroke-linejoin:round;stroke-miterlimit:4;stroke-dasharray:none;stroke-dashoffset:0;stroke-opacity:0.65490196;paint-order:stroke fill markers"
           d="m 260.44735,39.110422 -2.42529,4.426336 h -67.64575 l -2.42529,-4.426336 z"
           id="rect4497-9-0-4"
           inkscape:connector-curvature="0"
           sodipodi:nodetypes="ccccc" />
        <path
           style="opacity:1;fill:#b3b3b3;fill-opacity:1;stroke:none;stroke-width:0.17919669;stroke-linecap:round;stroke-linejoin:round;stroke-miterlimit:4;stroke-dasharray:none;stroke-dashoffset:0;stroke-opacity:0.65490196;paint-order:stroke fill markers"
           d="m 258.92922,41.587261 -2.32371,-2.476839 h -64.81265 l -2.32371,2.476839 z"
           id="rect4497-9-0-4-9"
           inkscape:connector-curvature="0"
           sodipodi:nodetypes="ccccc" />
        <path
           style="opacity:1;fill:#e6e6e6;fill-opacity:1;stroke:none;stroke-width:0.17919669;stroke-linecap:round;stroke-linejoin:round;stroke-miterlimit:4;stroke-dasharray:none;stroke-dashoffset:0;stroke-opacity:0.65490196;paint-order:stroke fill markers"
           d="m 258.92922,41.587261 -1.16185,-1.238419 H 190.631 l -1.16185,1.238419 z"
           id="rect4497-9-0-4-9-0"
           inkscape:connector-curvature="0"
           sodipodi:nodetypes="ccccc" />
      </g>
      <g
         transform="translate(15.568401,-61.408673)"
         id="g5637">
        <path
           style="opacity:1;fill:#808080;fill-opacity:1;stroke:none;stroke-width:0.08735886;stroke-linecap:round;stroke-linejoin:round;stroke-miterlimit:4;stroke-dasharray:none;stroke-dashoffset:0;stroke-opacity:0.65490196;paint-order:stroke fill markers"
           d="m 238.24621,36.172989 c 0,0 -6.19201,0.632543 -14.04703,0.632543 -7.85502,0 -14.04702,-0.632543 -14.04702,-0.632543 V 33.46371 h 28.09405 z"
           id="rect4497-9-7-7"
           inkscape:connector-curvature="0"
           sodipodi:nodetypes="czcccc" />
        <circle
           style="opacity:1;fill:#2fff1e;fill-opacity:1;stroke:none;stroke-width:0.35860696;stroke-linecap:round;stroke-linejoin:round;stroke-miterlimit:4;stroke-dasharray:none;stroke-dashoffset:0;stroke-opacity:0.65490196;paint-order:stroke fill markers"
           id="path4623"
           cx="235.98756"
           cy="34.733566"
           r="0.70060045" />
      </g>
    </g>
    <g
       id="g5665"
       transform="matrix(2.4671458,0,0,2.4671458,-413.43204,7.5795524)"
       style="fill:#67ccca;fill-opacity:1">
      <path
         inkscape:connector-curvature="0"
         id="path4874"
         d="m 213.23053,51.539062 a 0.73657367,0.73657367 0 0 0 -0.33593,0.07227 c 0,0 -0.64187,0.313532 -1.19336,1.044922 -0.5515,0.73139 -1.07142,1.915601 -1.08789,3.650391 -0.0178,1.875893 1.05131,3.164226 1.95117,4.30664 0.89985,1.142415 1.65625,2.144014 1.65625,3.69336 0,1.667745 -0.43196,2.688839 -0.83203,3.300781 -0.40008,0.611942 -0.70703,0.773437 -0.70703,0.773437 a 0.73661726,0.73661726 0 1 0 0.74414,1.271485 c 0,0 0.64527,-0.395924 1.19726,-1.240235 0.552,-0.84431 1.07227,-2.177696 1.07227,-4.105468 0,-2.046166 -1.06297,-3.448098 -1.97461,-4.605469 -0.91164,-1.157371 -1.64724,-2.066602 -1.63477,-3.38086 0.0138,-1.455367 0.42307,-2.289378 0.79102,-2.777343 0.36794,-0.487965 0.63672,-0.59375 0.63672,-0.59375 a 0.73657367,0.73657367 0 0 0 -0.28321,-1.410157 z"
         style="color:#000000;font-style:normal;font-variant:normal;font-weight:normal;font-stretch:normal;font-size:medium;line-height:normal;font-family:sans-serif;font-variant-ligatures:normal;font-variant-position:normal;font-variant-caps:normal;font-variant-numeric:normal;font-variant-alternates:normal;font-feature-settings:normal;text-indent:0;text-align:start;text-decoration:none;text-decoration-line:none;text-decoration-style:solid;text-decoration-color:#000000;letter-spacing:normal;word-spacing:normal;text-transform:none;writing-mode:lr-tb;direction:ltr;text-orientation:mixed;dominant-baseline:auto;baseline-shift:baseline;text-anchor:start;white-space:normal;shape-padding:0;clip-rule:nonzero;display:inline;overflow:visible;visibility:visible;opacity:1;isolation:auto;mix-blend-mode:normal;color-interpolation:sRGB;color-interpolation-filters:linearRGB;solid-color:#000000;solid-opacity:1;vector-effect:none;fill:#67ccca;fill-opacity:1;fill-rule:nonzero;stroke:none;stroke-width:1.47300005;stroke-linecap:round;stroke-linejoin:round;stroke-miterlimit:4;stroke-dasharray:none;stroke-dashoffset:0;stroke-opacity:1;color-rendering:auto;image-rendering:auto;shape-rendering:auto;text-rendering:auto;enable-background:accumulate" />
      <path
         inkscape:connector-curvature="0"
         id="path4874-0"
         d="m 224.27546,51.539062 a 0.73657373,0.73657373 0 0 0 -0.33594,0.07227 c 0,0 -0.64186,0.313532 -1.19336,1.044922 -0.5515,0.73139 -1.07142,1.915601 -1.08789,3.650391 -0.0178,1.875893 1.05131,3.164226 1.95117,4.30664 0.89986,1.142415 1.6582,2.144014 1.6582,3.69336 0,1.667745 -0.43195,2.688839 -0.83203,3.300781 -0.40007,0.611942 -0.70898,0.773437 -0.70898,0.773437 a 0.73661726,0.73661726 0 1 0 0.74414,1.271485 c 0,0 0.64527,-0.395924 1.19726,-1.240235 0.552,-0.84431 1.07227,-2.177696 1.07227,-4.105468 0,-2.046166 -1.06297,-3.448098 -1.97461,-4.605469 -0.91164,-1.157371 -1.64724,-2.066602 -1.63477,-3.38086 0.0138,-1.455367 0.42307,-2.289378 0.79102,-2.777343 0.36795,-0.487965 0.63672,-0.59375 0.63672,-0.59375 a 0.73657373,0.73657373 0 0 0 -0.2832,-1.410157 z"
         style="color:#000000;font-style:normal;font-variant:normal;font-weight:normal;font-stretch:normal;font-size:medium;line-height:normal;font-family:sans-serif;font-variant-ligatures:normal;font-variant-position:normal;font-variant-caps:normal;font-variant-numeric:normal;font-variant-alternates:normal;font-feature-settings:normal;text-indent:0;text-align:start;text-decoration:none;text-decoration-line:none;text-decoration-style:solid;text-decoration-color:#000000;letter-spacing:normal;word-spacing:normal;text-transform:none;writing-mode:lr-tb;direction:ltr;text-orientation:mixed;dominant-baseline:auto;baseline-shift:baseline;text-anchor:start;white-space:normal;shape-padding:0;clip-rule:nonzero;display:inline;overflow:visible;visibility:visible;opacity:1;isolation:auto;mix-blend-mode:normal;color-interpolation:sRGB;color-interpolation-filters:linearRGB;solid-color:#000000;solid-opacity:1;vector-effect:none;fill:#67ccca;fill-opacity:1;fill-rule:nonzero;stroke:none;stroke-width:1.47300017;stroke-linecap:round;stroke-linejoin:round;stroke-miterlimit:4;stroke-dasharray:none;stroke-dashoffset:0;stroke-opacity:1;color-rendering:auto;image-rendering:auto;shape-rendering:auto;text-rendering:auto;enable-background:accumulate" />
      <path
         inkscape:connector-curvature="0"
         id="path4874-2"
         d="m 235.32038,51.539062 a 0.73657373,0.73657373 0 0 0 -0.33594,0.07227 c 0,0 -0.64186,0.313532 -1.19336,1.044922 -0.5515,0.73139 -1.07142,1.915601 -1.08789,3.650391 -0.0178,1.875893 1.05132,3.164226 1.95117,4.30664 0.89986,1.142415 1.65821,2.144014 1.65821,3.69336 0,1.667745 -0.43196,2.688839 -0.83204,3.300781 -0.40007,0.611942 -0.70898,0.773437 -0.70898,0.773437 a 0.73661726,0.73661726 0 1 0 0.74414,1.271485 c 0,0 0.64527,-0.395924 1.19727,-1.240235 0.55199,-0.84431 1.07226,-2.177696 1.07226,-4.105468 0,-2.046166 -1.06297,-3.448098 -1.97461,-4.605469 -0.91164,-1.157371 -1.64724,-2.066602 -1.63476,-3.38086 0.0138,-1.455367 0.42307,-2.289378 0.79101,-2.777343 0.36795,-0.487965 0.63672,-0.59375 0.63672,-0.59375 a 0.73657373,0.73657373 0 0 0 -0.2832,-1.410157 z"
         style="color:#000000;font-style:normal;font-variant:normal;font-weight:normal;font-stretch:normal;font-size:medium;line-height:normal;font-family:sans-serif;font-variant-ligatures:normal;font-variant-position:normal;font-variant-caps:normal;font-variant-numeric:normal;font-variant-alternates:normal;font-feature-settings:normal;text-indent:0;text-align:start;text-decoration:none;text-decoration-line:none;text-decoration-style:solid;text-decoration-color:#000000;letter-spacing:normal;word-spacing:normal;text-transform:none;writing-mode:lr-tb;direction:ltr;text-orientation:mixed;dominant-baseline:auto;baseline-shift:baseline;text-anchor:start;white-space:normal;shape-padding:0;clip-rule:nonzero;display:inline;overflow:visible;visibility:visible;opacity:1;isolation:auto;mix-blend-mode:normal;color-interpolation:sRGB;color-interpolation-filters:linearRGB;solid-color:#000000;solid-opacity:1;vector-effect:none;fill:#67ccca;fill-opacity:1;fill-rule:nonzero;stroke:none;stroke-width:1.47300017;stroke-linecap:round;stroke-linejoin:round;stroke-miterlimit:4;stroke-dasharray:none;stroke-dashoffset:0;stroke-opacity:1;color-rendering:auto;image-rendering:auto;shape-rendering:auto;text-rendering:auto;enable-background:accumulate" />
    </g>
    <g
       id="g5030"
       transform="matrix(1,0,0,2.2727923,0.41746445,-85.879337)">
      <rect
         y="73.648735"
         x="44.283436"
         height="2.4739349"
         width="189.9982"
         id="rect5011"
         style="opacity:1;fill:#b3b3b3;fill-opacity:1;stroke:none;stroke-width:1.75899994;stroke-linecap:square;stroke-linejoin:miter;stroke-miterlimit:4;stroke-dasharray:none;stroke-dashoffset:0;stroke-opacity:1;paint-order:stroke fill markers" />
      <rect
         y="74.18055"
         x="44.283436"
         height="1.9421171"
         width="189.9982"
         id="rect5011-2"
         style="opacity:1;fill:#f9f9f9;fill-opacity:1;stroke:none;stroke-width:1.55850923;stroke-linecap:square;stroke-linejoin:miter;stroke-miterlimit:4;stroke-dasharray:none;stroke-dashoffset:0;stroke-opacity:1;paint-order:stroke fill markers" />
    </g>
  </g>
</svg>
