<?xml version="1.0" encoding="UTF-8" standalone="no"?>
<!-- Created with Inkscape (http://www.inkscape.org/) -->

<svg
   xmlns:dc="http://purl.org/dc/elements/1.1/"
   xmlns:cc="http://creativecommons.org/ns#"
   xmlns:rdf="http://www.w3.org/1999/02/22-rdf-syntax-ns#"
   xmlns:svg="http://www.w3.org/2000/svg"
   xmlns="http://www.w3.org/2000/svg"
   xmlns:xlink="http://www.w3.org/1999/xlink"
   xmlns:sodipodi="http://sodipodi.sourceforge.net/DTD/sodipodi-0.dtd"
   xmlns:inkscape="http://www.inkscape.org/namespaces/inkscape"
   width="31.112612mm"
   height="19.831795mm"
   viewBox="0 0 110.24154 70.270139"
   id="svg16115"
   version="1.1"
   inkscape:version="0.91 r13725"
   sodipodi:docname="airco.svg">
  <sodipodi:namedview
     id="base"
     pagecolor="#ffffff"
     bordercolor="#666666"
     borderopacity="1.0"
     inkscape:pageopacity="0.0"
     inkscape:pageshadow="2"
     inkscape:zoom="1.979899"
     inkscape:cx="-1.1104067"
     inkscape:cy="82.613939"
     inkscape:document-units="px"
     inkscape:current-layer="layer1"
     showgrid="false"
     inkscape:object-paths="true"
     inkscape:snap-intersection-paths="true"
     inkscape:object-nodes="true"
     inkscape:snap-smooth-nodes="true"
     inkscape:snap-global="true"
     inkscape:window-width="1920"
     inkscape:window-height="1005"
     inkscape:window-x="-9"
     inkscape:window-y="-9"
     inkscape:window-maximized="1"
     fit-margin-top="0"
     fit-margin-left="0"
     fit-margin-right="0"
     fit-margin-bottom="0" />
  <defs
     id="defs16117" />
  <metadata
     id="metadata16120">
    <rdf:RDF>
      <cc:Work
         rdf:about="">
        <dc:format>image/svg+xml</dc:format>
        <dc:type
           rdf:resource="http://purl.org/dc/dcmitype/StillImage" />
        <dc:title></dc:title>
      </cc:Work>
    </rdf:RDF>
  </metadata>
  <g
     id="layer1"
     inkscape:groupmode="layer"
     inkscape:label="Layer 1"
     transform="translate(-209.25672,-623.36184)">
    <g
       id="g17417">
      <rect
         style="color:#000000;clip-rule:nonzero;display:inline;overflow:visible;visibility:visible;opacity:1;isolation:auto;mix-blend-mode:normal;color-interpolation:sRGB;color-interpolation-filters:linearRGB;solid-color:#000000;solid-opacity:1;fill:#cccccc;fill-opacity:1;fill-rule:nonzero;stroke:#000000;stroke-width:0.40400001;stroke-linecap:butt;stroke-linejoin:miter;stroke-miterlimit:4;stroke-dasharray:none;stroke-dashoffset:0;stroke-opacity:1;marker:none;color-rendering:auto;image-rendering:auto;shape-rendering:auto;text-rendering:auto;enable-background:accumulate"
         id="rect16663"
         width="109.83754"
         height="65.19413"
         x="209.45872"
         y="623.56384"
         rx="8.655777"
         ry="8.6449089" />
      <path
         id="path16789"
         d="m 266.98854,655.32941 c 0,14.13886 -11.47551,25.60083 -25.63182,25.60223 -8.6e-4,0 -0.002,0 -0.003,0 -6.79867,0 -13.31889,-2.69737 -18.12627,-7.49872 -4.80739,-4.80135 -7.50815,-11.31338 -7.50815,-18.10351 0,0 0,0 0,0 0,-6.79013 2.70076,-13.30216 7.50815,-18.10351 4.80738,-4.80135 11.3276,-7.49872 18.12627,-7.49872 8.6e-4,0 0.002,0 0.003,0 14.15631,10e-4 25.63182,11.46337 25.63182,25.60223 0,0 0,0 0,0 0,0 0,0 0,0"
         style="color:#000000;clip-rule:nonzero;display:inline;overflow:visible;visibility:visible;opacity:1;isolation:auto;mix-blend-mode:normal;color-interpolation:sRGB;color-interpolation-filters:linearRGB;solid-color:#000000;solid-opacity:1;fill:#000000;fill-opacity:1;fill-rule:nonzero;stroke:#ffffff;stroke-width:1;stroke-linecap:butt;stroke-linejoin:miter;stroke-miterlimit:4;stroke-dasharray:none;stroke-dashoffset:0;stroke-opacity:1;marker:none;color-rendering:auto;image-rendering:auto;shape-rendering:auto;text-rendering:auto;enable-background:accumulate"
         inkscape:connector-curvature="0" />
      <g
         style="fill:#ffffff"
         id="g16671"
         transform="matrix(0.32956853,0,0,0.32915475,140.18828,464.04898)">
        <rect
           ry="4.2931314"
           rx="4.2931314"
           y="552.33667"
           x="411.63718"
           height="10.606602"
           width="110.10663"
           id="rect16667"
           style="color:#000000;clip-rule:nonzero;display:inline;overflow:visible;visibility:visible;opacity:1;isolation:auto;mix-blend-mode:normal;color-interpolation:sRGB;color-interpolation-filters:linearRGB;solid-color:#000000;solid-opacity:1;fill:#ffffff;fill-opacity:1;fill-rule:nonzero;stroke:#000000;stroke-width:1.22661543;stroke-linecap:butt;stroke-linejoin:miter;stroke-miterlimit:4;stroke-dasharray:none;stroke-dashoffset:0;stroke-opacity:1;marker:none;color-rendering:auto;image-rendering:auto;shape-rendering:auto;text-rendering:auto;enable-background:accumulate" />
        <path
           sodipodi:nodetypes="cc"
           inkscape:connector-curvature="0"
           id="path16669"
           d="m 411.63718,557.63997 110.10662,0"
           style="color:#000000;clip-rule:nonzero;display:inline;overflow:visible;visibility:visible;opacity:1;isolation:auto;mix-blend-mode:normal;color-interpolation:sRGB;color-interpolation-filters:linearRGB;solid-color:#000000;solid-opacity:1;fill:#ffffff;fill-opacity:1;fill-rule:nonzero;stroke:#000000;stroke-width:0.53436714;stroke-linecap:butt;stroke-linejoin:miter;stroke-miterlimit:4;stroke-dasharray:none;stroke-dashoffset:0;stroke-opacity:1;marker:none;color-rendering:auto;image-rendering:auto;shape-rendering:auto;text-rendering:auto;enable-background:accumulate" />
      </g>
      <use
         style="fill:#ffffff"
         x="0"
         y="0"
         xlink:href="#g16671"
         id="use16675"
         transform="translate(0,5.266476)"
         width="100%"
         height="100%" />
      <use
         style="fill:#ffffff"
         x="0"
         y="0"
         xlink:href="#g16671"
         id="use16677"
         transform="translate(0,10.532949)"
         width="100%"
         height="100%" />
      <use
         style="fill:#ffffff"
         x="0"
         y="0"
         xlink:href="#g16671"
         id="use16679"
         transform="translate(0,15.799428)"
         width="100%"
         height="100%" />
      <use
         style="fill:#ffffff"
         x="0"
         y="0"
         xlink:href="#g16671"
         id="use16681"
         transform="translate(0,26.33238)"
         width="100%"
         height="100%" />
      <use
         style="fill:#ffffff"
         x="0"
         y="0"
         xlink:href="#g16671"
         id="use16683"
         transform="translate(0,21.065904)"
         width="100%"
         height="100%" />
      <path
         id="path16777"
         d="m 248.75154,655.32941 c 0,4.08013 -3.31173,7.38774 -7.39704,7.38794 -3.7e-4,0 -7.5e-4,0 -0.001,0 -2.00255,-2e-4 -3.86766,-0.80315 -5.23025,-2.16412 -1.36259,-1.36097 -2.1664,-3.22378 -2.1664,-5.22382 0,-2.5e-4 0,-5e-4 0,-7.5e-4 2e-4,-1.99999 0.80418,-3.86272 2.1669,-5.22356 1.36271,-1.36085 3.22791,-2.16363 5.23051,-2.16363 1.2e-4,0 2.5e-4,0 3.7e-4,0 4.08531,2e-4 7.39704,3.30781 7.39704,7.38794 0,0 0,0 0,0 0,0 0,0 0,0"
         style="color:#000000;clip-rule:nonzero;display:inline;overflow:visible;visibility:visible;opacity:1;isolation:auto;mix-blend-mode:normal;color-interpolation:sRGB;color-interpolation-filters:linearRGB;solid-color:#000000;solid-opacity:1;fill:none;fill-opacity:1;fill-rule:nonzero;stroke:#ffffff;stroke-width:0.40400001;stroke-linecap:butt;stroke-linejoin:miter;stroke-miterlimit:4;stroke-dasharray:none;stroke-dashoffset:0;stroke-opacity:1;marker:none;color-rendering:auto;image-rendering:auto;shape-rendering:auto;text-rendering:auto;enable-background:accumulate"
         inkscape:connector-curvature="0" />
      <path
         id="path16779"
         d="m 251.79104,655.32941 c 0,5.75658 -4.67236,10.42326 -10.43617,10.42366 -4.6e-4,0 -9.1e-4,0 -0.001,0 -2.80191,-1.7e-4 -5.44287,-1.11886 -7.37959,-3.05323 -1.93672,-1.93436 -3.05669,-4.57204 -3.05669,-7.37043 0,-2.1e-4 0,-4.2e-4 0,-6.3e-4 1.7e-4,-2.79835 1.12028,-5.43595 3.0571,-7.37022 1.93683,-1.93426 4.57786,-3.05281 7.37981,-3.05281 2.5e-4,0 4.9e-4,0 7.4e-4,0 5.76381,4e-4 10.43617,4.66708 10.43617,10.42366 0,0 0,0 0,0 0,0 0,0 0,0"
         style="color:#000000;clip-rule:nonzero;display:inline;overflow:visible;visibility:visible;opacity:1;isolation:auto;mix-blend-mode:normal;color-interpolation:sRGB;color-interpolation-filters:linearRGB;solid-color:#000000;solid-opacity:1;fill:none;fill-opacity:1;fill-rule:nonzero;stroke:#ffffff;stroke-width:0.40400001;stroke-linecap:butt;stroke-linejoin:miter;stroke-miterlimit:4;stroke-dasharray:none;stroke-dashoffset:0;stroke-opacity:1;marker:none;color-rendering:auto;image-rendering:auto;shape-rendering:auto;text-rendering:auto;enable-background:accumulate"
         inkscape:connector-curvature="0" />
      <path
         id="path16781"
         d="m 254.83054,655.32941 c 0,7.43304 -6.03299,13.45877 -13.4753,13.45937 -5.4e-4,0 -0.001,0 -0.002,0 -3.60126,-1.3e-4 -7.01807,-1.43456 -9.52893,-3.94232 -2.51085,-2.50776 -3.94698,-5.92031 -3.94698,-9.51705 0,-1.7e-4 0,-3.4e-4 0,-5e-4 1.3e-4,-3.59671 1.43637,-7.0092 3.94731,-9.51688 2.51094,-2.50768 5.92781,-3.94199 9.5291,-3.94199 3.7e-4,0 7.4e-4,0 0.001,0 7.44231,6e-4 13.4753,6.02633 13.4753,13.45937 0,0 0,0 0,0 0,0 0,0 0,0"
         style="color:#000000;clip-rule:nonzero;display:inline;overflow:visible;visibility:visible;opacity:1;isolation:auto;mix-blend-mode:normal;color-interpolation:sRGB;color-interpolation-filters:linearRGB;solid-color:#000000;solid-opacity:1;fill:none;fill-opacity:1;fill-rule:nonzero;stroke:#ffffff;stroke-width:0.40400001;stroke-linecap:butt;stroke-linejoin:miter;stroke-miterlimit:4;stroke-dasharray:none;stroke-dashoffset:0;stroke-opacity:1;marker:none;color-rendering:auto;image-rendering:auto;shape-rendering:auto;text-rendering:auto;enable-background:accumulate"
         inkscape:connector-curvature="0" />
      <path
         id="path16783"
         d="m 257.87004,655.32941 c 0,9.10949 -7.39362,16.49429 -16.51443,16.49509 -6.2e-4,0 -0.001,0 -0.002,0 -4.40061,-10e-5 -8.59327,-1.75026 -11.67826,-4.83142 -3.08499,-3.08117 -4.83728,-7.26858 -4.83728,-11.66367 0,-1.3e-4 0,-2.5e-4 0,-3.8e-4 1.1e-4,-4.39506 1.75248,-8.58243 4.83753,-11.66353 3.08505,-3.0811 7.27775,-4.83118 11.67839,-4.83118 4.9e-4,0 9.9e-4,0 10e-4,0 9.12081,8e-4 16.51443,7.3856 16.51443,16.49509 0,0 0,0 0,0 0,0 0,0 0,0"
         style="color:#000000;clip-rule:nonzero;display:inline;overflow:visible;visibility:visible;opacity:1;isolation:auto;mix-blend-mode:normal;color-interpolation:sRGB;color-interpolation-filters:linearRGB;solid-color:#000000;solid-opacity:1;fill:none;fill-opacity:1;fill-rule:nonzero;stroke:#ffffff;stroke-width:0.40400001;stroke-linecap:butt;stroke-linejoin:miter;stroke-miterlimit:4;stroke-dasharray:none;stroke-dashoffset:0;stroke-opacity:1;marker:none;color-rendering:auto;image-rendering:auto;shape-rendering:auto;text-rendering:auto;enable-background:accumulate"
         inkscape:connector-curvature="0" />
      <path
         id="path16785"
         d="m 260.90954,655.32941 c 0,10.78595 -8.75425,19.5298 -19.55356,19.5308 -7e-4,0 -10e-4,0 -0.002,0 -5.19997,-7e-5 -10.16848,-2.06596 -13.8276,-5.72052 -3.65912,-3.65456 -5.72757,-8.61684 -5.72757,-13.81028 0,-8e-5 0,-1.7e-4 0,-2.5e-4 7e-5,-5.19342 2.06857,-10.15568 5.72773,-13.8102 3.65917,-3.65451 8.62771,-5.72035 13.82769,-5.72035 6.2e-4,0 0.001,0 0.002,0 10.79931,10e-4 19.55356,8.74485 19.55356,19.5308 0,0 0,0 0,0 0,0 0,0 0,0"
         style="color:#000000;clip-rule:nonzero;display:inline;overflow:visible;visibility:visible;opacity:1;isolation:auto;mix-blend-mode:normal;color-interpolation:sRGB;color-interpolation-filters:linearRGB;solid-color:#000000;solid-opacity:1;fill:none;fill-opacity:1;fill-rule:nonzero;stroke:#ffffff;stroke-width:0.40400001;stroke-linecap:butt;stroke-linejoin:miter;stroke-miterlimit:4;stroke-dasharray:none;stroke-dashoffset:0;stroke-opacity:1;marker:none;color-rendering:auto;image-rendering:auto;shape-rendering:auto;text-rendering:auto;enable-background:accumulate"
         inkscape:connector-curvature="0" />
      <path
         id="path16787"
         d="m 263.94904,655.32941 c 0,12.4624 -10.11488,22.56531 -22.59269,22.56652 -7.8e-4,0 -0.002,0 -0.002,0 -5.99931,-4e-5 -11.74368,-2.38167 -15.97693,-6.60962 -4.23325,-4.22796 -6.61786,-9.96511 -6.61786,-15.9569 0,-4e-5 0,-8e-5 0,-1.3e-4 4e-5,-5.99177 2.38467,-11.72892 6.61794,-15.95685 4.23328,-4.22793 9.97765,-6.60954 15.97698,-6.60954 7.4e-4,0 0.001,0 0.002,0 12.47781,10e-4 22.59269,10.10412 22.59269,22.56652 0,0 0,0 0,0 0,0 0,0 0,0"
         style="color:#000000;clip-rule:nonzero;display:inline;overflow:visible;visibility:visible;opacity:1;isolation:auto;mix-blend-mode:normal;color-interpolation:sRGB;color-interpolation-filters:linearRGB;solid-color:#000000;solid-opacity:1;fill:none;fill-opacity:1;fill-rule:nonzero;stroke:#ffffff;stroke-width:0.40400001;stroke-linecap:butt;stroke-linejoin:miter;stroke-miterlimit:4;stroke-dasharray:none;stroke-dashoffset:0;stroke-opacity:1;marker:none;color-rendering:auto;image-rendering:auto;shape-rendering:auto;text-rendering:auto;enable-background:accumulate"
         inkscape:connector-curvature="0" />
      <path
         inkscape:connector-curvature="0"
         id="path16814"
         d="m 241.35672,629.72718 -0.003,51.20446"
         style="color:#000000;clip-rule:nonzero;display:inline;overflow:visible;visibility:visible;opacity:1;isolation:auto;mix-blend-mode:normal;color-interpolation:sRGB;color-interpolation-filters:linearRGB;solid-color:#000000;solid-opacity:1;fill:none;fill-opacity:1;fill-rule:nonzero;stroke:#ffffff;stroke-width:1;stroke-linecap:butt;stroke-linejoin:miter;stroke-miterlimit:4;stroke-dasharray:none;stroke-dashoffset:0;stroke-opacity:1;marker:none;color-rendering:auto;image-rendering:auto;shape-rendering:auto;text-rendering:auto;enable-background:accumulate" />
      <path
         inkscape:connector-curvature="0"
         id="path16816"
         d="m 215.71971,655.32941 51.26883,0"
         style="color:#000000;clip-rule:nonzero;display:inline;overflow:visible;visibility:visible;opacity:1;isolation:auto;mix-blend-mode:normal;color-interpolation:sRGB;color-interpolation-filters:linearRGB;solid-color:#000000;solid-opacity:1;fill:none;fill-opacity:1;fill-rule:nonzero;stroke:#ffffff;stroke-width:1;stroke-linecap:butt;stroke-linejoin:miter;stroke-miterlimit:4;stroke-dasharray:none;stroke-dashoffset:0;stroke-opacity:1;marker:none;color-rendering:auto;image-rendering:auto;shape-rendering:auto;text-rendering:auto;enable-background:accumulate" />
      <path
         style="color:#000000;clip-rule:nonzero;display:inline;overflow:visible;visibility:visible;opacity:1;isolation:auto;mix-blend-mode:normal;color-interpolation:sRGB;color-interpolation-filters:linearRGB;solid-color:#000000;solid-opacity:1;fill:none;fill-opacity:1;fill-rule:nonzero;stroke:#ffffff;stroke-width:1;stroke-linecap:butt;stroke-linejoin:miter;stroke-miterlimit:4;stroke-dasharray:none;stroke-dashoffset:0;stroke-opacity:1;marker:none;color-rendering:auto;image-rendering:auto;shape-rendering:auto;text-rendering:auto;enable-background:accumulate"
         d="m 223.22784,637.20313 36.25254,36.25254"
         id="path16818"
         inkscape:connector-curvature="0" />
      <path
         style="color:#000000;clip-rule:nonzero;display:inline;overflow:visible;visibility:visible;opacity:1;isolation:auto;mix-blend-mode:normal;color-interpolation:sRGB;color-interpolation-filters:linearRGB;solid-color:#000000;solid-opacity:1;fill:none;fill-opacity:1;fill-rule:nonzero;stroke:#ffffff;stroke-width:1;stroke-linecap:butt;stroke-linejoin:miter;stroke-miterlimit:4;stroke-dasharray:none;stroke-dashoffset:0;stroke-opacity:1;marker:none;color-rendering:auto;image-rendering:auto;shape-rendering:auto;text-rendering:auto;enable-background:accumulate"
         d="m 223.22787,673.45567 36.25254,-36.25254"
         id="path16820"
         inkscape:connector-curvature="0" />
      <rect
         rx="0"
         y="688.758"
         x="219.45564"
         height="4.6719851"
         width="2.7779195"
         id="rect16830"
         style="color:#000000;clip-rule:nonzero;display:inline;overflow:visible;visibility:visible;opacity:1;isolation:auto;mix-blend-mode:normal;color-interpolation:sRGB;color-interpolation-filters:linearRGB;solid-color:#000000;solid-opacity:1;fill:#cccccc;fill-opacity:1;fill-rule:nonzero;stroke:#000000;stroke-width:0.40400001;stroke-linecap:butt;stroke-linejoin:miter;stroke-miterlimit:4;stroke-dasharray:none;stroke-dashoffset:0;stroke-opacity:1;marker:none;color-rendering:auto;image-rendering:auto;shape-rendering:auto;text-rendering:auto;enable-background:accumulate" />
      <use
         style="color:#000000;clip-rule:nonzero;display:inline;overflow:visible;visibility:visible;opacity:1;isolation:auto;mix-blend-mode:normal;color-interpolation:sRGB;color-interpolation-filters:linearRGB;solid-color:#000000;solid-opacity:1;fill:#cccccc;fill-opacity:1;fill-rule:nonzero;stroke:#000000;stroke-width:0.40400001;stroke-linecap:butt;stroke-linejoin:miter;stroke-miterlimit:4;stroke-dasharray:none;stroke-dashoffset:0;stroke-opacity:1;marker:none;color-rendering:auto;image-rendering:auto;shape-rendering:auto;text-rendering:auto;enable-background:accumulate"
         height="100%"
         width="100%"
         transform="translate(86,-1.8847656e-8)"
         id="use17401"
         xlink:href="#rect16830"
         y="0"
         x="0" />
    </g>
  </g>
</svg>
